<svg version="1.2" baseProfile="tiny" xmlns="http://www.w3.org/2000/svg" width="61.042" height="47.977"><path fill-rule="evenodd" fill="#BABABA" d="M1.955 4.992h12.045v10.872h-12.045v-10.872z"/><path fill="#BABABA" d="M8.009 0l8.009 5.989h-16.018l8.009-5.989z"/><path fill-rule="evenodd" fill="#797979" d="M2.013 20.983h11.987v11h-11.987v-11z"/><path fill="#797979" d="M8.009 15.992l8.009 5.989h-16.018l8.009-5.989z"/><path fill="#BABABA" d="M24.023 0l2.001 5.947 6.003.161-4.767 3.837 1.709 6.047-4.947-3.576-4.947 3.576 1.709-6.047-4.767-3.837 6.003-.161 2.003-5.947z"/><path fill="#797979" d="M24.023 15.992l2.001 5.947 6.003.161-4.767 3.837 1.709 6.047-4.947-3.576-4.947 3.576 1.709-6.047-4.767-3.837 6.003-.161 2.003-5.947z"/><path fill="#E4C420" d="M24.023 31.984l2.001 5.947 6.003.161-4.767 3.837 1.709 6.047-4.946-3.576-4.947 3.576 1.709-6.047-4.767-3.837 6.003-.161 2.002-5.947z"/><path fill-rule="evenodd" fill="#BABABA" d="M32.042 3h16v10h-16v-10z"/><path fill-rule="evenodd" fill="#BABABA" d="M32.055 0h9l1.973 4h-11l.027-4z"/><path fill-rule="evenodd" fill="#797979" d="M32.042 18.992h16v10h-16v-10z"/><path fill-rule="evenodd" fill="#797979" d="M32.055 15.992h9l1.973 4h-11l.027-4z"/><path fill-rule="evenodd" fill="#BABABA" d="M55.042-.008c3.313 0 6 2.687 6 6s-2.687 6-6 6-6-2.687-6-6 2.686-6 6-6z"/><path fill-rule="evenodd" fill="#797979" d="M55.042 15.983c3.313 0 6 2.687 6 6s-2.687 6-6 6-6-2.687-6-6 2.686-6 6-6z"/></svg>